PathFileType	4	(X/Y/Z)	RBDS017static.trc
DataRate	CameraRate	NumFrames	NumMarkers	Units	OrigDataRate	OrigDataStartFrame	OrigNumFrames
150.000000	150.000000	4	48	mm	150.000000	75	150
Frame#	Time	L.Ankle			L.Ankle.Medial			L.ASIS			L.GTR			L.Heel.Bottom			L.Heel.Lateral			L.Heel.Top			L.HF			L.Iliac.Crest			L.Knee			L.Knee.Medial			L.MT1			L.MT2			L.MT5			L.PSIS			L.Shank.Bottom.Lateral			L.Shank.Bottom.Medial			L.Shank.Top.Lateral			L.Shank.Top.Medial			L.Thigh.Bottom.Lateral			L.Thigh.Bottom.Medial			L.Thigh.Top.Lateral			L.Thigh.Top.Medial			L.TT			R.Ankle			R.Ankle.Medial			R.ASIS			R.GTR			R.Heel.Bottom			R.Heel.Lateral			R.Heel.Top			R.HF			R.Iliac.Crest			R.Knee			R.Knee.Medial			R.MT1			R.MT2			R.MT5			R.PSIS			R.Shank.Bottom.Lateral			R.Shank.Bottom.Medial			R.Shank.Top.Lateral			R.Shank.Top.Medial			R.Thigh.Bottom.Lateral			R.Thigh.Bottom.Medial			R.Thigh.Top.Lateral			R.Thigh.Top.Medial			R.TT			
		X1	Y1	Z1	X2	Y2	Z2	X3	Y3	Z3	X4	Y4	Z4	X5	Y5	Z5	X6	Y6	Z6	X7	Y7	Z7	X8	Y8	Z8	X9	Y9	Z9	X10	Y10	Z10	X11	Y11	Z11	X12	Y12	Z12	X13	Y13	Z13	X14	Y14	Z14	X15	Y15	Z15	X16	Y16	Z16	X17	Y17	Z17	X18	Y18	Z18	X19	Y19	Z19	X20	Y20	Z20	X21	Y21	Z21	X22	Y22	Z22	X23	Y23	Z23	X24	Y24	Z24	X25	Y25	Z25	X26	Y26	Z26	X27	Y27	Z27	X28	Y28	Z28	X29	Y29	Z29	X30	Y30	Z30	X31	Y31	Z31	X32	Y32	Z32	X33	Y33	Z33	X34	Y34	Z34	X35	Y35	Z35	X36	Y36	Z36	X37	Y37	Z37	X38	Y38	Z38	X39	Y39	Z39	X40	Y40	Z40	X41	Y41	Z41	X42	Y42	Z42	X43	Y43	Z43	X44	Y44	Z44	X45	Y45	Z45	X46	Y46	Z46	X47	Y47	Z47	X48	Y48	Z48	

76	0.5	707.1997680664063	113.9699172973633	1037.788330078125	734.52099609375	124.9609909057617	1120.571044921875	859.8861083984375	1078.550537109375	1088.986694335938	781.8125	992.3201904296875	1038.841064453125	643.1557006835938	41.12556457519531	1078.228881835938	664.8611450195313	61.09671401977539	1042.423461914063	649.9800415039063	87.34307098388672	1080.317504882813	772.4118041992188	511.471435546875	1048.039672851563	785.7278442382813	1170.053466796875	1051.478149414063	775.347900390625	566.0930786132813	1055.235229492188	768.109130859375	551.7595825195313	1175.265014648438	864.9747924804688	63.72319030761719	1123.9013671875	869.24853515625	68.22475433349609	1074.814575195313	834.9304809570313	50.32631301879883	1013.87451171875	680.5639038085938	1137.51318359375	1175.4931640625	718.240234375	209.1545715332031	1036.109008789063	675.8494873046875	210.5414123535156	1071.3466796875	716.0911865234375	289.5671691894531	1030.827270507813	674.6720581054688	291.3850402832031	1065.295166015625	786.4861450195313	694.9147338867188	1035.476318359375	720.8733520507813	686.4004516601563	1065.255126953125	766.2960205078125	803.6641235351563	1032.145263671875	707.5255126953125	796.0648803710938	1066.014404296875	826.2053833007813	482.245849609375	1089.982421875	710.5817260742188	110.0387954711914	1414.436889648438	732.301513671875	122.5366058349609	1330.093994140625	849.7476806640625	1074.235229492188	1373.84716796875	774.6788330078125	986.720947265625	1417.29931640625	641.368896484375	43.48785781860352	1370.18212890625	666.8663330078125	65.15287017822266	1409.672241210938	651.602294921875	90.27771759033203	1370.499145507813	767.2152709960938	507.5000915527344	1399.823486328125	787.6364135742188	1159.946899414063	1410.556396484375	772.5963134765625	563.6622314453125	1392.303955078125	777.596435546875	548.2654418945313	1272.15087890625	863.0109252929688	65.40428924560547	1329.09912109375	872.5443115234375	70.02566528320313	1371.630981445313	830.921630859375	51.39298629760742	1442.256103515625	679.0852661132813	1135.08544921875	1277.486450195313	712.6563720703125	208.4307556152344	1414.163452148438	675.3383178710938	212.7266387939453	1379.195922851563	714.902099609375	293.2276916503906	1420.388061523438	674.085693359375	293.4269714355469	1385.635498046875	769.3101806640625	689.409912109375	1408.954223632813	707.4086303710938	682.5348510742188	1369.054077148438	749.6646728515625	797.7667236328125	1413.14013671875	694.5869750976563	791.4910278320313	1371.18408203125	825.2679443359375	479.6921997070313	1357.978637695313	
77	0.5066666666666667	707.1957397460938	113.9576416015625	1037.7841796875	734.5115356445313	124.9562072753906	1120.573608398438	859.8583984375	1078.543579101563	1088.98095703125	781.8101196289063	992.3231811523438	1038.821655273438	643.1582641601563	41.11983108520508	1078.217529296875	664.8659057617188	61.08918762207031	1042.42529296875	649.9854125976563	87.33371734619141	1080.316040039063	772.387451171875	511.4608154296875	1048.033203125	785.7032470703125	1170.04150390625	1051.464111328125	775.3319091796875	566.0882568359375	1055.223022460938	768.08740234375	551.771484375	1175.26123046875	864.9647216796875	63.71920394897461	1123.911010742188	869.2457275390625	68.22209930419922	1074.817993164063	834.9285278320313	50.3286018371582	1013.885192871094	680.5433959960938	1137.517700195313	1175.46728515625	718.2274780273438	209.1482696533203	1036.10888671875	675.8396606445313	210.5384521484375	1071.348022460938	716.0729370117188	289.5608215332031	1030.828125	674.6629638671875	291.3852844238281	1065.298828125	786.4603881835938	694.9119873046875	1035.463989257813	720.8656616210938	686.4010620117188	1065.260986328125	766.270263671875	803.65966796875	1032.123657226563	707.51708984375	796.0558471679688	1066.007446289063	826.1796264648438	482.2367248535156	1089.978393554688	710.5735473632813	110.0337371826172	1414.432739257813	732.2958374023438	122.5388565063477	1330.088989257813	849.7247314453125	1074.241943359375	1373.825927734375	774.6488037109375	986.7176513671875	1417.278076171875	641.3602294921875	43.49582672119141	1370.188354492188	666.8678588867188	65.15750885009766	1409.6806640625	651.5938720703125	90.27051544189453	1370.502563476563	767.1865844726563	507.50341796875	1399.811645507813	787.6083984375	1159.965454101563	1410.534423828125	772.5797119140625	563.6650390625	1392.298461914063	777.5855712890625	548.2593994140625	1272.145263671875	863.005126953125	65.399658203125	1329.101684570313	872.5384521484375	70.00381469726563	1371.638061523438	830.924560546875	51.40044021606445	1442.2578125	679.063232421875	1135.085693359375	1277.471923828125	712.6410522460938	208.4305725097656	1414.165283203125	675.3187255859375	212.723388671875	1379.205444335938	714.884765625	293.226806640625	1420.38818359375	674.0693359375	293.4309692382813	1385.6279296875	769.2821044921875	689.4171752929688	1408.945190429688	707.3780517578125	682.5372314453125	1369.0419921875	749.6399536132813	797.7767944335938	1413.129638671875	694.5656127929688	791.493896484375	1371.173461914063	825.238525390625	479.6908874511719	1357.956665039063	
78	0.5133333333333334	707.195068359375	113.9550628662109	1037.77978515625	734.50537109375	124.9515991210938	1120.56787109375	859.8450927734375	1078.5458984375	1088.9560546875	781.7883911132813	992.3252563476563	1038.806762695313	643.15283203125	41.11977005004883	1078.22412109375	664.8623046875	61.08580780029297	1042.418823242188	649.9765014648438	87.32654571533203	1080.318481445313	772.3862915039063	511.4613647460938	1048.027099609375	785.678466796875	1170.044067382813	1051.429443359375	775.334716796875	566.0956420898438	1055.22021484375	768.063720703125	551.778564453125	1175.259643554688	864.9650268554688	63.72613143920898	1123.905883789063	869.2471313476563	68.22872924804688	1074.820434570313	834.9281616210938	50.33689117431641	1013.873901367188	680.5222778320313	1137.511108398438	1175.441772460938	718.218505859375	209.1475524902344	1036.10888671875	675.8319702148438	210.5354919433594	1071.350341796875	716.0640258789063	289.5623168945313	1030.827880859375	674.6489868164063	291.3840026855469	1065.304443359375	786.4444580078125	694.909423828125	1035.454956054688	720.8621215820313	686.3966064453125	1065.300903320313	766.2398681640625	803.640869140625	1032.110595703125	707.4971313476563	796.0516967773438	1065.999877929688	826.1679077148438	482.2376403808594	1089.964233398438	710.590576171875	109.9055023193359	1414.136840820313	732.3096923828125	122.5327987670898	1330.085815429688	849.6964111328125	1074.252319335938	1373.801635742188	774.6143798828125	986.727783203125	1417.258911132813	641.352783203125	43.49764251708984	1370.189575195313	666.8628540039063	65.15838623046875	1409.681640625	651.5902099609375	90.27618408203125	1370.508544921875	767.1571044921875	507.5070495605469	1399.808349609375	787.5742797851563	1159.971435546875	1410.513305664063	772.5435791015625	563.6622924804688	1392.27587890625	777.5478515625	548.26318359375	1272.131713867188	863.0070190429688	65.4039306640625	1329.104125976563	872.5496215820313	70.00341033935547	1371.632934570313	830.92236328125	51.39252090454102	1442.258911132813	679.0353393554688	1135.081787109375	1277.450805664063	712.629638671875	208.4351501464844	1414.165405273438	675.3167724609375	212.7252655029297	1379.198974609375	714.8717651367188	293.2359008789063	1420.3798828125	674.0545043945313	293.4217529296875	1385.61962890625	769.249755859375	689.42138671875	1408.939575195313	707.355224609375	682.541748046875	1369.036865234375	749.6207885742188	797.7792358398438	1413.10498046875	694.546875	791.4962768554688	1371.154174804688	825.2281494140625	479.6941223144531	1357.963989257813	
79	0.52	707.1893920898438	113.9591903686523	1037.781494140625	734.4902954101563	124.9525146484375	1120.567993164063	859.8255004882813	1078.541748046875	1088.9404296875	781.776123046875	992.31982421875	1038.783569335938	643.1433715820313	41.11661529541016	1078.224731445313	664.8518676757813	61.08550643920898	1042.41650390625	649.9766845703125	87.32666778564453	1080.31201171875	772.3563232421875	511.4721984863281	1048.013427734375	785.6636962890625	1170.041748046875	1051.40771484375	775.3276977539063	566.1011352539063	1055.213989257813	768.0634155273438	551.7693481445313	1175.238037109375	864.9580688476563	63.72707748413086	1123.902587890625	869.2439575195313	68.23545074462891	1074.815551757813	834.9291381835938	50.33712005615234	1013.873046875	680.5017700195313	1137.514282226563	1175.419799804688	718.2113037109375	209.1523590087891	1036.101440429688	675.8341064453125	210.5399017333984	1071.348022460938	716.0567626953125	289.5659484863281	1030.822998046875	674.6395263671875	291.3831176757813	1065.303833007813	786.413330078125	694.9044189453125	1035.44970703125	720.8575439453125	686.3778076171875	1065.337158203125	766.2191162109375	803.635498046875	1032.1064453125	707.474609375	796.042236328125	1065.99072265625	826.1398315429688	482.2394714355469	1089.951538085938	710.5879516601563	109.912956237793	1414.1318359375	732.2996215820313	122.5338134765625	1330.106079101563	849.6720581054688	1074.246704101563	1373.766235351563	774.5721435546875	986.7332153320313	1417.245239257813	641.355224609375	43.50399017333984	1370.195922851563	666.8634643554688	65.16177368164063	1409.681518554688	651.5908813476563	90.27355194091797	1370.49951171875	767.134033203125	507.5142822265625	1399.803955078125	787.5381469726563	1159.970947265625	1410.491821289063	772.5569458007813	563.7471923828125	1392.491943359375	777.4977416992188	548.2799072265625	1272.117919921875	862.9990234375	65.41720581054688	1329.099853515625	872.549560546875	70.01023101806641	1371.63037109375	830.9219970703125	51.41072845458984	1442.26416015625	679.015869140625	1135.08740234375	1277.421997070313	712.6292724609375	208.4374847412109	1414.156616210938	675.3023681640625	212.7212371826172	1379.195434570313	714.8634643554688	293.2282104492188	1420.37548828125	674.0432739257813	293.4239501953125	1385.616943359375	769.2234497070313	689.4257202148438	1408.920043945313	707.3272705078125	682.5460815429688	1369.007080078125	749.5951538085938	797.7890014648438	1413.086303710938	694.5186157226563	791.507568359375	1371.130004882813	825.1998291015625	479.70458984375	1357.962158203125	
